<?xml version="1.0" encoding="utf-8"?>
<!-- Generator: Adobe Illustrator 27.5.0, SVG Export Plug-In . SVG Version: 6.00 Build 0)  -->
<!DOCTYPE svg PUBLIC "-//W3C//DTD SVG 1.1//EN" "http://www.w3.org/Graphics/SVG/1.1/DTD/svg11.dtd" [
	<!ENTITY ns_extend "http://ns.adobe.com/Extensibility/1.0/">
	<!ENTITY ns_ai "http://ns.adobe.com/AdobeIllustrator/10.0/">
	<!ENTITY ns_graphs "http://ns.adobe.com/Graphs/1.0/">
	<!ENTITY ns_vars "http://ns.adobe.com/Variables/1.0/">
	<!ENTITY ns_imrep "http://ns.adobe.com/ImageReplacement/1.0/">
	<!ENTITY ns_sfw "http://ns.adobe.com/SaveForWeb/1.0/">
	<!ENTITY ns_custom "http://ns.adobe.com/GenericCustomNamespace/1.0/">
	<!ENTITY ns_adobe_xpath "http://ns.adobe.com/XPath/1.0/">
]>
<svg version="1.1" id="Слой_1" xmlns:x="&ns_extend;" xmlns:i="&ns_ai;" xmlns:graph="&ns_graphs;"
	 xmlns="http://www.w3.org/2000/svg" xmlns:xlink="http://www.w3.org/1999/xlink" x="0px" y="0px" viewBox="0 0 200 200"
	 style="enable-background:new 0 0 200 200;" xml:space="preserve">
<style type="text/css">
	.st0{fill:#324075;}
	.st1{fill:#FF6D00;}
</style>
<metadata>
	<sfw  xmlns="&ns_sfw;">
		<slices></slices>
		<sliceSourceBounds  bottomLeftOrigin="true" height="179.4" width="200" x="0" y="-189.7"></sliceSourceBounds>
	</sfw>
</metadata>
<g>
	<path class="st0" d="M162.1,54.8V17.5h-25.2v19.2L100,10.3L0,82l8,14.7h13.4v66.6c0,14.5,11.8,26.3,26.3,26.3h21.9v-28.5
		l-24.8-14.3V84.3L100,45l55.1,39.4v62.6l-24.8,14.3v28.5h21.9c14.5,0,26.3-11.8,26.3-26.3V96.7H192l8-14.7L162.1,54.8z"/>
	<polygon class="st1" points="85.7,189.7 114.3,189.7 114.3,151.9 139,137.6 139,92.6 115.8,76 115.8,117.1 100,126.2 84.2,117.1 
		84.2,76 61,92.6 61,137.6 85.7,151.9 	"/>
</g>
</svg>
